<svg version="1.1" id="Layer_1" xmlns="http://www.w3.org/2000/svg" xmlns:xlink="http://www.w3.org/1999/xlink" x="0px" y="0px"
	 width="100%" viewBox="0 0 1024 1024" enable-background="new 0 0 1024 1024" xml:space="preserve">
<path fill="#000000" opacity="1.000000" stroke="none" 
	d="
M789.340454,426.134155 
	C790.470642,434.640625 788.198792,441.247467 781.670349,446.419769 
	C777.905151,449.402802 776.833374,453.656036 776.895142,458.482117 
	C777.165894,479.644897 777.164673,500.810974 777.361572,521.974915 
	C777.584778,545.965698 778.031677,569.955139 778.098816,593.945984 
	C778.112427,598.807556 780.101135,599.760132 784.395081,599.746460 
	C821.559692,599.627930 858.724854,599.665161 895.889832,599.669373 
	C903.718201,599.670288 904.184387,600.328979 904.402832,608.296509 
	C904.543884,613.438721 904.388062,618.048462 899.350952,621.315857 
	C896.747192,623.004883 896.348450,626.327026 896.350952,629.444458 
	C896.378723,663.773315 896.425842,698.102295 896.350159,732.430969 
	C896.339966,737.066589 897.880615,739.026917 902.802185,738.744568 
	C910.409485,738.308228 917.227600,741.078186 923.182312,745.651062 
	C930.523743,751.288818 931.211975,757.796509 925.455627,765.093933 
	C921.902710,769.597961 917.265503,772.868225 912.500366,775.972107 
	C886.259827,793.064514 857.591248,805.238464 828.885071,817.350891 
	C775.969116,839.678406 722.437805,860.534912 669.820862,883.569336 
	C622.041687,904.485962 575.680420,928.325195 529.765503,953.012268 
	C518.481201,959.079468 508.157684,959.437317 496.765015,953.180542 
	C446.242279,925.433838 395.122589,898.845642 342.176208,875.932251 
	C300.153931,857.746460 257.558350,840.981018 214.869461,824.442139 
	C182.411621,811.867065 150.097656,798.942017 119.389503,782.399353 
	C112.054924,778.448181 104.912964,774.134460 98.768394,768.396606 
	C88.904495,759.185730 90.249046,749.397583 102.279770,743.312866 
	C107.973122,740.433411 113.904106,738.218323 120.443703,738.674866 
	C124.322929,738.945740 125.711884,737.370544 125.701195,733.465820 
	C125.603943,697.967773 125.612785,662.469177 125.700874,626.971008 
	C125.708885,623.740173 124.246956,621.726990 121.995712,619.786377 
	C118.013000,616.353271 116.123428,607.567749 118.226891,602.979797 
	C119.662178,599.849243 122.392616,599.640686 125.376183,599.645081 
	C155.874725,599.690369 186.373367,599.678650 216.871979,599.682373 
	C223.871658,599.683228 230.876282,599.523315 237.869171,599.741028 
	C242.121201,599.873352 243.826202,598.339417 243.858368,593.977051 
	C243.989838,576.150696 244.513199,558.327026 244.615494,540.500793 
	C244.767548,514.002747 244.458771,487.500000 244.855682,461.006897 
	C244.960052,454.039459 243.045441,448.758759 237.899597,444.288452 
	C235.810730,442.473846 232.975479,440.734375 232.842789,437.724091 
	C232.586914,431.918915 232.561722,426.053467 233.140060,420.283112 
	C233.422211,417.467804 236.527145,417.630157 238.896072,417.631134 
	C257.395233,417.638824 275.894379,417.640503 294.393524,417.642365 
	C301.726532,417.643097 309.061798,417.748688 316.391602,417.594910 
	C320.448029,417.509796 322.239929,419.383270 322.279266,423.243805 
	C322.318298,427.076569 322.204163,430.913300 322.339294,434.741882 
	C322.461395,438.201874 320.332703,440.456665 318.042053,442.266479 
	C310.293976,448.388367 307.705139,456.096344 308.208221,465.942688 
	C309.866699,498.400940 308.582428,530.928894 309.564545,563.391724 
	C310.482117,593.721863 309.971039,624.035278 310.367920,654.352966 
	C310.708160,680.342957 311.100494,706.332825 311.271515,732.323975 
	C311.298981,736.503052 312.837433,737.810669 316.831879,737.908386 
	C328.188049,738.186096 329.011047,737.646851 328.616119,727.169495 
	C326.725891,677.020691 328.125458,626.859192 327.988129,576.703857 
	C327.934753,557.217041 328.158234,537.729309 328.072601,518.242798 
	C328.052704,513.713745 329.832947,511.963776 334.290039,512.032471 
	C353.615479,512.330322 372.941742,511.934296 392.273926,512.400574 
	C408.071747,512.781799 423.901245,511.839905 439.699524,512.212830 
	C467.029480,512.857971 494.355408,512.511780 521.681885,512.529602 
	C552.672424,512.549744 583.664001,512.039062 614.653381,512.169128 
	C637.967529,512.266968 661.277100,512.742859 684.593018,512.158691 
	C693.247131,511.941925 693.324646,512.236145 693.351501,520.631165 
	C693.577148,591.120972 694.785217,661.606934 694.220276,732.098572 
	C694.181641,736.922363 695.924561,738.033447 700.313171,737.972229 
	C710.788208,737.826172 710.605347,737.986084 710.910034,727.680298 
	C712.141357,686.028137 710.800476,644.349670 711.871643,602.714172 
	C712.977783,559.723206 712.086121,516.735535 712.974182,473.755676 
	C713.066895,469.263550 713.429260,464.777252 713.646973,460.287354 
	C713.922607,454.601959 712.199402,449.350433 707.663818,446.111328 
	C699.096558,439.992950 698.957153,431.511322 699.714844,422.510620 
	C699.977173,419.394501 701.493103,417.631897 704.815491,417.634521 
	C731.147522,417.655487 757.479614,417.661163 783.811646,417.642731 
	C789.615723,417.638641 789.310303,421.736053 789.340454,426.134155 
M559.032715,587.480103 
	C544.778870,575.433960 529.317139,564.966248 514.646240,553.467957 
	C511.777863,551.219910 509.630432,551.912476 507.110992,553.845154 
	C496.544739,561.950623 486.078583,570.200928 475.272308,577.976562 
	C446.976898,598.336304 432.167603,624.931763 434.204529,660.634949 
	C435.464203,682.714233 434.814667,704.904724 434.931580,727.045837 
	C434.989563,738.021484 434.897034,738.021973 445.775543,737.936157 
	C452.653839,737.881836 452.879486,737.729919 452.904663,730.979797 
	C452.992310,707.492310 452.950867,684.004089 453.129364,660.517456 
	C453.182404,653.542297 453.103455,646.450500 454.293121,639.622620 
	C457.185883,623.019958 465.850555,609.584778 479.169434,599.383301 
	C488.679260,592.099426 498.659637,585.432434 508.346130,578.375061 
	C510.757050,576.618469 512.603455,577.406128 514.640503,578.835571 
	C524.723328,585.910828 535.335693,592.339478 544.808533,600.151550 
	C560.401978,613.011230 569.477661,629.510132 569.377625,650.361511 
	C569.255310,675.847839 569.307190,701.335327 569.366882,726.822021 
	C569.395935,739.232483 567.902405,737.539368 580.328735,737.621643 
	C587.363953,737.668213 587.636841,737.375305 587.640930,730.321045 
	C587.656311,703.668091 587.301758,677.009460 587.743286,650.363831 
	C588.164490,624.944458 578.135864,604.608948 559.032715,587.480103 
M369.990906,642.508362 
	C363.632263,648.223755 358.481354,654.767395 358.411346,663.733154 
	C358.232117,686.689392 358.418152,709.648376 358.289764,732.605286 
	C358.267975,736.501160 359.641937,737.973328 363.501099,737.914856 
	C372.981384,737.771240 382.465454,737.899231 391.947632,737.848572 
	C398.479980,737.813660 399.011139,737.256836 398.991974,730.678223 
	C398.931427,709.883606 398.568726,689.085022 398.875854,668.296143 
	C399.033691,657.613770 395.075043,649.349426 387.267578,642.463562 
	C379.708832,635.797058 378.354462,635.694763 369.990906,642.508362 
M624.170349,673.505859 
	C623.984497,693.158997 623.819519,712.812439 623.594177,732.465088 
	C623.552612,736.091858 624.772217,738.009949 628.798462,737.935120 
	C637.957886,737.764771 647.122559,737.896667 656.285034,737.866760 
	C663.399719,737.843567 663.678894,737.573669 663.681335,730.589905 
	C663.688904,708.766357 663.555481,686.941895 663.726685,665.119751 
	C663.783752,657.852844 661.399658,651.845825 656.606445,646.540649 
	C645.571106,634.326721 638.589417,635.026611 629.022217,648.562439 
	C623.734009,656.044373 624.222168,664.218506 624.170349,673.505859 
M163.329361,696.499939 
	C163.326355,708.325500 163.540573,720.156982 163.213898,731.973633 
	C163.082397,736.730591 164.820206,737.996704 169.247711,737.893738 
	C179.069092,737.665283 188.903641,737.660583 198.724487,737.902771 
	C203.289581,738.015320 204.707489,736.414795 204.750031,731.825623 
	C204.956848,709.504150 204.038666,687.205872 203.693390,664.897339 
	C203.547714,655.485535 194.390991,643.923096 185.425980,641.384216 
	C183.885269,640.947815 182.330215,640.158630 180.635086,641.241211 
	C170.777710,647.536377 163.387558,655.406067 163.348923,668.018005 
	C163.320847,677.178589 163.334976,686.339233 163.329361,696.499939 
M818.423645,665.150818 
	C818.398193,687.605530 818.434387,710.060669 818.289368,732.514587 
	C818.263916,736.459717 819.845825,737.839722 823.608582,737.800232 
	C833.254822,737.698853 842.907959,737.595276 852.548035,737.863708 
	C857.355347,737.997559 858.838440,736.231079 858.789795,731.484924 
	C858.575378,710.528870 858.232300,689.556152 858.850891,668.616516 
	C859.201660,656.744385 853.245728,649.390869 844.678345,642.863525 
	C841.404480,640.369202 838.385315,640.595581 835.006104,642.284668 
	C825.822266,646.874939 821.023376,654.706604 818.423645,665.150818 
z"/>
<path fill="#000000" opacity="1.000000" stroke="none" 
	d="
M546.647644,307.328857 
	C562.681824,319.356445 580.051758,328.678375 596.317139,339.695984 
	C615.606689,352.761993 631.545410,368.751801 639.634338,391.166718 
	C646.774658,410.952820 646.911499,430.551880 636.619141,449.508453 
	C635.670715,451.255402 634.448730,452.857544 633.311035,454.497253 
	C629.648560,459.775909 625.009277,462.090607 618.178223,462.070282 
	C546.380493,461.856750 474.581665,461.946442 402.783508,462.100586 
	C397.815857,462.111237 394.243866,460.550598 391.151001,456.749115 
	C380.225403,443.320465 376.575714,427.840454 378.294647,410.982330 
	C381.874817,375.870544 403.613647,353.537598 431.735962,335.794037 
	C450.458069,323.981445 469.596863,312.768036 486.289429,298.022980 
	C487.038208,297.361542 487.811890,296.726776 488.538147,296.041595 
	C492.892914,291.933105 497.772522,288.547241 494.908997,280.809448 
	C493.121155,275.978394 494.864929,270.647186 498.757202,266.512360 
	C504.300049,260.624054 503.986053,252.749756 505.624298,245.538879 
	C506.174072,243.118896 506.838928,240.718094 507.593292,238.353867 
	C508.134521,236.657608 509.292999,235.370590 511.214050,235.444855 
	C513.169983,235.520493 514.129944,236.980743 514.487732,238.700821 
	C515.499878,243.567123 516.462219,248.445770 517.325500,253.340500 
	C518.178162,258.175232 519.540222,262.834167 523.084351,266.368073 
	C528.304321,271.572937 528.500427,277.667358 526.088745,283.888641 
	C524.831421,287.131958 525.403320,288.998840 527.747437,291.235687 
	C533.662292,296.879913 539.801086,302.237030 546.647644,307.328857 
z"/>
<path fill="#000000" opacity="1.000000" stroke="none" 
	d="
M281.160095,225.180054 
	C254.103180,249.480530 232.624451,277.718842 215.141769,309.100586 
	C195.429840,344.483917 182.615341,382.258331 176.540207,422.251221 
	C172.381760,449.626556 172.012405,477.266418 172.483032,504.888611 
	C172.587173,511.000916 170.912201,515.092834 165.305420,517.680481 
	C162.458572,518.994324 160.035370,521.236511 157.176483,522.511597 
	C151.987732,524.825867 147.703094,522.032959 147.685883,516.392944 
	C147.624313,496.234436 146.598038,476.005920 147.889450,455.929535 
	C152.346359,386.642273 172.764221,322.548798 212.649277,265.202301 
	C236.734329,230.572968 265.749207,200.708481 300.085327,176.165131 
	C334.314545,151.698227 371.997192,134.529678 412.694550,123.954132 
	C420.610626,121.897079 423.822571,124.995926 422.283844,133.002197 
	C422.064880,134.141403 421.317261,135.307465 421.466949,136.369049 
	C422.846283,146.150223 416.272278,148.826813 408.827484,151.256653 
	C361.165924,166.812576 318.349915,190.799591 281.160095,225.180054 
z"/>
<path fill="#000000" opacity="1.000000" stroke="none" 
	d="
M839.538818,315.524139 
	C856.513062,351.095886 866.897400,388.173340 872.531128,426.769836 
	C876.912415,456.785645 874.793945,486.901001 875.271545,516.978943 
	C875.349976,521.919983 871.317566,524.572510 866.689331,522.773987 
	C861.699951,520.835144 857.357422,517.650757 853.290161,514.209167 
	C850.981201,512.255432 850.631470,509.382660 850.646484,506.436279 
	C850.702515,495.441528 850.695312,484.446198 850.659302,473.451263 
	C850.411194,397.724335 827.738525,329.498749 781.788391,269.240875 
	C738.042175,211.873169 681.228271,172.886276 612.878052,150.400864 
	C602.009521,146.825394 597.347168,139.078903 599.551575,127.783539 
	C600.333923,123.774529 602.862732,122.326180 606.884766,123.265770 
	C627.557495,128.095093 647.202576,135.791397 666.441406,144.604263 
	C714.793152,166.753006 755.687744,198.626373 790.029358,239.136642 
	C809.745178,262.393860 826.031921,287.821960 839.538818,315.524139 
z"/>
<path fill="#000000" opacity="1.000000" stroke="none" 
	d="
M532.379089,217.676361 
	C487.485840,232.275558 447.161377,203.337708 438.831879,161.830246 
	C430.601990,120.819283 455.785919,82.828476 496.476410,74.143517 
	C508.868988,71.498451 520.917480,73.144798 532.880188,76.582558 
	C534.361328,77.008194 536.059509,77.281219 535.984741,79.186668 
	C535.889771,81.605591 533.782471,81.176254 532.205688,81.380020 
	C515.963684,83.478798 502.396606,90.329544 492.374207,103.611649 
	C470.576080,132.499359 484.638275,171.873856 519.862000,178.874985 
	C537.535400,182.387787 551.676575,174.582336 562.623169,160.860535 
	C568.469971,153.531448 571.518921,144.949295 572.642456,135.674606 
	C572.891541,133.618866 572.098999,130.649857 574.966125,130.341736 
	C578.143433,130.000275 577.636292,133.440170 577.969482,135.187332 
	C584.893250,171.495926 565.658020,205.288025 532.379089,217.676361 
z"/>
<path fill="#000000" opacity="1.000000" stroke="none" 
	d="
M540.000122,473.661682 
	C565.823486,473.665802 591.146912,473.665070 616.470276,473.678192 
	C623.043640,473.681580 623.035889,473.712738 622.967590,480.466614 
	C622.918762,485.297577 622.821716,490.131897 622.944397,494.959656 
	C623.053101,499.239441 621.644958,501.045410 616.893433,501.034149 
	C552.086121,500.880402 487.278290,500.924744 422.470581,500.916260 
	C416.639648,500.915497 410.808685,500.865601 404.977844,500.879211 
	C401.310486,500.887756 399.487061,499.363220 399.622559,495.447357 
	C399.806763,490.122681 399.937408,484.767365 399.571167,479.461090 
	C399.247101,474.765930 401.065033,473.566650 405.552765,473.582672 
	C445.869751,473.726562 486.187500,473.666901 526.505005,473.666595 
	C530.836670,473.666565 535.168396,473.663635 540.000122,473.661682 
z"/>
<path fill="#000000" opacity="1.000000" stroke="none" 
	d="
M139.980591,557.190857 
	C145.882111,546.662048 154.379166,539.336609 164.430450,533.710876 
	C170.155518,530.506409 175.902527,527.469299 178.027847,520.567627 
	C179.266571,516.545105 178.125992,512.242859 179.587738,508.248505 
	C179.925110,507.326599 179.849442,506.252533 180.192688,505.334015 
	C180.747314,503.849823 180.856171,501.804596 183.074982,501.771820 
	C185.399475,501.737457 185.500671,503.909180 185.858765,505.357178 
	C186.572678,508.244049 186.962067,511.221497 187.334091,514.180542 
	C188.265106,521.585510 190.618530,527.817932 197.910431,531.639648 
	C207.286652,536.553894 215.556992,543.004089 221.329208,552.163818 
	C227.948090,562.667114 228.885971,574.321289 228.272339,586.298889 
	C228.107620,589.514160 225.794754,589.335571 223.604752,589.340210 
	C210.772812,589.367554 197.940842,589.387878 185.108871,589.392639 
	C170.277069,589.398132 155.443741,589.265625 140.614410,589.454163 
	C136.260040,589.509583 134.778305,587.836914 134.605438,583.641846 
	C134.227631,574.471985 135.640533,565.745178 139.980591,557.190857 
z"/>
<path fill="#000000" opacity="1.000000" stroke="none" 
	d="
M836.334534,510.620483 
	C837.083740,507.241119 836.506897,502.550995 840.021179,502.339478 
	C844.153503,502.090729 843.240540,507.065613 843.882202,509.841766 
	C844.693420,513.351685 843.972534,517.260864 845.010803,520.662598 
	C846.561340,525.742432 850.300415,529.249207 855.088013,531.848206 
	C864.698669,537.065430 873.126831,543.720642 879.366943,552.931335 
	C886.127930,562.910522 888.084473,573.943115 887.347839,585.728333 
	C887.140442,589.046570 885.196777,589.376526 882.631104,589.370422 
	C873.968323,589.349792 865.305359,589.392151 856.642517,589.391174 
	C838.317200,589.389099 819.989685,589.218262 801.668091,589.473328 
	C796.950195,589.539001 795.059143,587.983643 794.877869,583.387878 
	C794.138916,564.647156 800.310059,549.117126 815.690186,537.765076 
	C817.162781,536.678162 818.597412,535.432983 820.246216,534.709167 
	C830.595642,530.165955 835.906128,522.304321 836.334534,510.620483 
z"/>
<path fill="#000000" opacity="1.000000" stroke="none" 
	d="
M313.221771,361.174774 
	C309.353088,363.403503 308.165253,366.349396 308.259735,370.487915 
	C308.518219,381.805359 308.239471,393.134216 308.403290,404.455200 
	C308.456360,408.124084 307.208313,409.551178 303.502441,409.357910 
	C299.018372,409.123993 294.509277,409.178284 290.018463,409.329224 
	C286.810730,409.437012 285.563782,408.177734 285.618530,404.950714 
	C285.748505,397.293060 285.694244,389.631195 285.628723,381.971771 
	C285.577301,375.960419 282.260345,372.177917 277.286102,372.274048 
	C272.423370,372.367981 269.395691,375.865662 269.303040,381.771484 
	C269.185547,389.263397 269.037720,396.762451 269.248260,404.248749 
	C269.361633,408.280548 267.737823,409.524872 263.942780,409.332550 
	C259.457916,409.105194 254.945374,409.099274 250.459717,409.311707 
	C246.677200,409.490845 245.566376,407.845886 245.610657,404.277069 
	C245.751144,392.955383 245.525482,381.628448 245.731812,370.308807 
	C245.803955,366.351105 244.953461,363.390625 241.633087,360.855743 
	C237.866745,357.980438 236.098953,348.524994 238.021576,344.298370 
	C238.971329,342.210449 240.759308,341.603210 242.932953,341.606384 
	C265.912689,341.639832 288.892456,341.651978 311.872223,341.659058 
	C315.582458,341.660187 317.390656,343.469452 317.341644,347.186371 
	C317.276672,352.109314 318.368073,357.345551 313.221771,361.174774 
z"/>
<path fill="#000000" opacity="1.000000" stroke="none" 
	d="
M741.126221,372.945587 
	C737.430237,375.096069 736.179382,378.021698 736.261536,381.899170 
	C736.420227,389.388245 736.170410,396.886108 736.338806,404.374756 
	C736.420166,407.990570 735.185974,409.529266 731.445679,409.350403 
	C726.794006,409.127960 722.118408,409.149689 717.463745,409.333679 
	C713.945312,409.472748 712.797241,407.968475 712.829163,404.595215 
	C712.937805,393.107574 712.767700,381.617065 712.907410,370.130096 
	C712.952759,366.398651 712.304382,363.411865 708.976196,361.106110 
	C703.325134,357.190979 704.216553,351.196442 705.080566,345.640991 
	C705.580139,342.428833 708.521790,341.607422 711.676086,341.620056 
	C726.328003,341.678711 740.980713,341.678589 755.632568,341.598206 
	C762.620117,341.559906 769.607178,341.148682 776.593140,341.181122 
	C782.110901,341.206726 783.605713,342.880310 783.915833,348.395233 
	C784.231873,354.015137 783.176575,359.050293 777.898376,362.214203 
	C775.537170,363.629547 775.318665,365.815186 775.328979,368.260925 
	C775.379700,380.248962 775.226135,392.239319 775.419739,404.224396 
	C775.482666,408.117096 774.268372,409.650085 770.285278,409.374298 
	C766.142395,409.087494 761.954468,409.126770 757.804932,409.358643 
	C754.008850,409.570770 752.415710,408.372498 752.570984,404.304749 
	C752.850220,396.989288 752.708130,389.654816 752.629150,382.329468 
	C752.551392,375.122742 748.679871,371.865295 741.126221,372.945587 
z"/>
<path fill="#000000" opacity="1.000000" stroke="none" 
	d="
M352.729370,244.762299 
	C344.342865,251.362701 336.222870,257.721191 328.161957,264.153748 
	C320.652710,270.146057 314.036469,270.335938 309.291138,264.584961 
	C303.480835,257.543304 304.050629,250.339966 311.574249,244.123398 
	C338.301514,222.039505 367.387054,203.858719 399.991394,191.656097 
	C403.711365,190.263855 407.297150,188.213684 411.361755,188.111771 
	C416.977753,187.970963 421.787323,191.832291 423.105316,197.159439 
	C424.462036,202.642975 422.034821,208.608276 417.010437,211.176865 
	C413.319946,213.063522 409.404846,214.519012 405.560272,216.094528 
	C387.022614,223.691315 369.451050,233.066299 352.729370,244.762299 
z"/>
<path fill="#000000" opacity="1.000000" stroke="none" 
	d="
M609.756653,212.478760 
	C602.237976,209.243164 599.738770,205.107498 600.718628,198.008286 
	C601.433594,192.828522 605.215271,189.077591 610.632446,188.185303 
	C613.921448,187.643570 616.854309,188.971451 619.794861,190.057281 
	C647.858032,200.420227 673.130859,215.738419 696.930908,233.646698 
	C701.455261,237.051071 705.948853,240.505066 710.320618,244.101471 
	C715.991272,248.766388 717.506653,254.477051 714.916016,260.474487 
	C711.023499,269.485840 703.052124,271.318604 695.606262,264.815338 
	C686.318970,256.703735 676.874390,248.805161 666.797913,241.668396 
	C649.287109,229.266190 630.401672,219.584747 609.756653,212.478760 
z"/>
<path fill="#000000" opacity="1.000000" stroke="none" 
	d="
M416.782074,275.896149 
	C393.401703,287.028412 372.596954,301.162079 354.899292,319.667816 
	C350.999939,323.745178 346.382324,325.512909 340.917786,323.886322 
	C336.320251,322.517883 333.953217,318.951599 333.135162,314.370728 
	C332.404175,310.277405 333.946259,306.787109 336.708313,303.938049 
	C362.349274,277.489349 392.235535,257.503479 426.978851,244.998260 
	C434.334930,242.350601 440.487762,244.825607 443.139832,251.207138 
	C445.795837,257.598267 443.290070,263.711304 436.216858,267.150024 
	C429.942810,270.200195 423.488251,272.879120 416.782074,275.896149 
z"/>
<path fill="#000000" opacity="1.000000" stroke="none" 
	d="
M605.632690,275.398376 
	C599.514038,272.266174 593.491638,269.862701 587.399780,267.617523 
	C580.262390,264.987061 576.903564,258.544250 579.136902,251.833862 
	C581.290588,245.363098 588.131775,242.267532 595.433289,244.790619 
	C626.958984,255.684540 654.260437,273.373688 678.137390,296.515869 
	C680.169250,298.485168 682.202332,300.456665 684.157959,302.500610 
	C690.379883,309.003479 691.088989,316.476318 686.001892,321.429016 
	C681.221558,326.083069 673.453186,325.270294 667.376160,319.423279 
	C661.019775,313.307587 654.836731,307.003174 647.933350,301.484100 
	C634.997925,291.142639 620.782593,282.864868 605.632690,275.398376 
z"/>
<path fill="#000000" opacity="1.000000" stroke="none" 
	d="
M305.559509,332.579956 
	C291.760834,333.946533 278.283417,333.051788 264.818787,333.353729 
	C263.820465,333.376129 262.821289,333.360413 261.822510,333.360260 
	C247.316895,333.357880 246.667465,332.761230 248.842697,318.390961 
	C250.619812,306.650787 255.860260,296.966705 266.718048,291.078430 
	C271.065155,288.720947 271.471771,284.528870 271.611237,280.342377 
	C271.767120,275.664337 272.189606,271.051361 273.861755,266.661224 
	C274.511261,264.955933 275.539520,263.184998 277.743347,263.334320 
	C279.997864,263.487091 280.722565,265.498016 281.038544,267.234772 
	C281.957428,272.285004 282.611115,277.384277 283.332367,282.469482 
	C283.811737,285.849335 284.632111,289.021149 287.901550,290.869293 
	C304.295624,300.136597 308.107727,314.877228 305.559509,332.579956 
z"/>
<path fill="#000000" opacity="1.000000" stroke="none" 
	d="
M726.389343,296.350220 
	C735.640381,291.862061 739.349060,284.639893 738.946289,274.868164 
	C738.853394,272.613678 739.637695,270.276367 740.279602,268.052582 
	C740.824158,266.165863 741.473328,263.915558 743.996643,264.001343 
	C746.145691,264.074402 746.915405,265.981995 747.451111,267.778564 
	C748.544556,271.446228 749.457458,275.158478 749.341736,279.027191 
	C749.164551,284.950684 751.217224,289.226471 756.513184,292.727814 
	C769.932190,301.599548 773.310181,315.110443 772.296692,330.293335 
	C772.133423,332.739502 770.782166,333.336670 768.675293,333.335724 
	C751.850891,333.328217 735.026489,333.335022 718.202087,333.360718 
	C716.050659,333.363983 714.781189,332.677521 714.668945,330.247772 
	C714.080811,317.511780 715.833496,305.605225 726.389343,296.350220 
z"/>
<path fill="#000000" opacity="1.000000" stroke="none" 
	d="
M329.763367,491.113129 
	C330.727234,476.801239 336.877808,466.336304 349.609863,460.082977 
	C353.342285,458.249786 354.316223,454.667999 354.601990,450.915955 
	C354.791199,448.431671 354.759186,445.959229 355.509705,443.523926 
	C356.061157,441.734406 356.312286,439.648529 358.683716,439.742096 
	C361.413879,439.849823 362.074585,442.073303 362.286835,444.326538 
	C362.566071,447.290161 362.281372,450.256775 363.022247,453.240265 
	C363.889984,456.734711 365.669769,459.049713 368.843109,460.806213 
	C382.189240,468.193359 388.977570,481.610016 387.334290,496.548462 
	C387.016479,499.437592 385.812012,500.463196 382.869263,500.518372 
	C366.741577,500.820892 350.618103,501.069580 334.486572,500.706360 
	C331.744141,500.644592 330.490601,499.559723 330.227081,497.013947 
	C330.039276,495.199432 329.909088,493.378967 329.763367,491.113129 
z"/>
<path fill="#000000" opacity="1.000000" stroke="none" 
	d="
M647.706787,464.638245 
	C649.364502,463.485596 650.635864,462.304413 652.138550,461.680695 
	C658.100342,459.206085 660.113342,454.607849 659.676086,448.515076 
	C659.531921,446.504974 659.856323,444.539978 660.597717,442.648407 
	C661.170959,441.185791 661.918945,439.878143 663.700623,439.853149 
	C665.769531,439.824066 666.689209,441.397217 667.015259,443.018524 
	C667.602600,445.939392 667.919373,448.924805 668.183960,451.897949 
	C668.552185,456.035431 670.421753,458.820282 674.197327,460.901703 
	C687.569702,468.273956 694.153992,481.736115 692.337036,496.855377 
	C692.037537,499.347687 690.980042,500.384247 688.553650,500.381287 
	C672.093201,500.361176 655.632751,500.365112 639.172302,500.378387 
	C636.985657,500.380157 635.840393,499.512604 635.676758,497.178040 
	C634.798523,484.646759 637.192139,473.340424 647.706787,464.638245 
z"/>
</svg>